<svg id="Logo" xmlns="http://www.w3.org/2000/svg" width="1574.158" height="992.814" viewBox="0 0 1574.158 992.814">
  <g id="Group_1" data-name="Group 1" transform="translate(432.695 941.35)">
    <path id="Path_1" data-name="Path 1" d="M437.716,108.258l-17.768,49.911h-9.692l-17.748-49.911H403.57l9.405,28.871c.92,2.781,1.922,6.42,2.351,8.2.429-1.84,1.35-5.275,2.27-8.2l9.2-28.871Z" transform="translate(-392.508 -107.481)" fill="#f5f6f6"/>
    <path id="Path_2" data-name="Path 2" d="M442.375,158.169h-10.98l-3.926-11.123H409.23L405.3,158.169H394.61l19.1-49.911H423.4Zm-18.321-20.61-3.21-9.058c-1-2.924-2-5.909-2.495-7.77-.511,1.861-1.493,4.846-2.495,7.77l-3.21,9.058Z" transform="translate(-351.631 -107.481)" fill="#f5f6f6"/>
    <path id="Path_3" data-name="Path 3" d="M437.605,119.261l-9.262,4.273a9.491,9.491,0,0,0-9.12-5.418c-7.483,0-11.777,6.563-11.777,15.846,0,8.976,4.356,15.826,11.839,15.826,4.5,0,7.136-1.942,9.774-6.359l8.4,4.989c-3.415,7.054-9.406,11.266-18.464,11.266-13.045,0-21.817-9.978-21.817-25.722,0-15.192,9.14-25.742,22.185-25.742C428.772,108.22,434.477,112.78,437.605,119.261Z" transform="translate(-301.614 -108.22)" fill="#f5f6f6"/>
    <path id="Path_4" data-name="Path 4" d="M447.177,158.169H436.2l-3.926-11.123H414.033l-3.926,11.123H399.413l19.1-49.911h9.712Zm-18.319-20.61-3.21-9.058c-1-2.924-2-5.909-2.495-7.77-.492,1.861-1.493,4.846-2.495,7.77l-3.21,9.058Z" transform="translate(-258.228 -107.481)" fill="#f5f6f6"/>
    <path id="Path_5" data-name="Path 5" d="M440.357,118.093H426.024v40.076h-9.978V118.093H401.713v-9.835h38.644Z" transform="translate(-213.5 -107.481)" fill="#f5f6f6"/>
    <path id="Path_6" data-name="Path 6" d="M414.086,158.169h-9.978V108.258h9.978Z" transform="translate(-166.925 -107.481)" fill="#f5f6f6"/>
    <path id="Path_7" data-name="Path 7" d="M449.1,133.881c0,16.112-9.058,25.8-22.021,25.8-13.046,0-21.96-9.549-21.96-25.661s9.057-25.8,22.1-25.8C440.188,108.22,449.1,117.768,449.1,133.881Zm-10.264.143c0-10.121-4.846-15.907-11.839-15.907-6.972,0-11.615,5.643-11.615,15.764s4.846,15.908,11.839,15.908S438.839,144.145,438.839,134.024Z" transform="translate(-147.206 -108.22)" fill="#f5f6f6"/>
    <path id="Path_8" data-name="Path 8" d="M448.188,158.169h-8.916l-18.32-27.235c-1.206-1.861-2.842-4.355-3.5-5.643,0,1.86.143,8.138.143,10.918v21.96h-9.834V108.258h9.549L435,134.634c1.206,1.861,2.842,4.355,3.5,5.643,0-1.861-.143-8.138-.143-10.919v-21.1h9.835Z" transform="translate(-95.828 -107.481)" fill="#f5f6f6"/>
    <path id="Path_9" data-name="Path 9" d="M451.782,158.169H440.312L431.4,140.2H421.358v17.973h-9.979V108.258h23.228c9.406,0,17.176,5.214,17.176,15.826,0,7.484-3.211,12.207-9.549,14.7Zm-10.265-33.86c0-4.5-2.7-6.359-7.115-6.359H421.358V130.79H434.4C439.023,130.79,441.518,128.643,441.518,124.309Z" transform="translate(-25.528 -107.481)" fill="#f5f6f6"/>
    <path id="Path_10" data-name="Path 10" d="M449.588,158.169H413.867V108.258h34.658v9.774H423.845v8.629h14.333v9.692H423.845V148.4h25.743Z" transform="translate(22.856 -107.481)" fill="#f5f6f6"/>
    <path id="Path_11" data-name="Path 11" d="M456.556,158.169h-8.915l-18.32-27.235c-1.227-1.861-2.863-4.355-3.5-5.643,0,1.86.143,8.138.143,10.918v21.96h-9.835V108.258h9.548l17.687,26.376c1.206,1.861,2.842,4.355,3.476,5.643,0-1.861-.144-8.138-.144-10.919v-21.1h9.855Z" transform="translate(66.922 -107.481)" fill="#f5f6f6"/>
    <path id="Path_12" data-name="Path 12" d="M457.223,118.093H442.89v40.076h-9.979V118.093H418.579v-9.835h38.644Z" transform="translate(114.49 -107.481)" fill="#f5f6f6"/>
    <path id="Path_13" data-name="Path 13" d="M468.2,158.169H457.218l-3.926-11.123H435.034l-3.906,11.123H420.434l19.1-49.911h9.692Zm-18.32-20.61-3.21-9.058c-1-2.924-2-5.909-2.495-7.77-.511,1.861-1.513,4.846-2.494,7.77l-3.21,9.058Z" transform="translate(150.563 -107.481)" fill="#f5f6f6"/>
    <path id="Path_14" data-name="Path 14" d="M458.227,158.169H423.222V108.258H433.2v40.076h25.027Z" transform="translate(204.78 -107.481)" fill="#f5f6f6"/>
    <path id="Path_15" data-name="Path 15" d="M464.277,143.8c0,9.467-5.991,15.887-19.608,15.887-8.344,0-15.622-3.5-19.405-9.058l7.218-6.4a16.178,16.178,0,0,0,12.76,5.7c5.909,0,8.689-1.656,8.689-5.439,0-3.19-1.717-4.621-11.123-6.768-9.2-2.127-15.6-5.05-15.6-14.885,0-9.058,7.974-14.619,17.809-14.619a23.874,23.874,0,0,1,18.177,7.831l-7.2,6.993c-3.211-3.271-6.768-5.132-11.327-5.132-5.358,0-7.136,2.29-7.136,4.5,0,3.129,2.146,4.13,10.059,5.991C455.505,130.241,464.277,132.961,464.277,143.8Z" transform="translate(244.491 -108.22)" fill="#f5f6f6"/>
  </g>
  <g id="Group_2" data-name="Group 2" transform="translate(0 750.418)">
    <path id="Path_16" data-name="Path 16" d="M377.623,232.624V202.056h119q8.619,0,11.512-3.047a11.437,11.437,0,0,0,2.9-8.219c0-3.578-.961-6.339-2.9-8.322-1.923-1.963-5.766-2.965-11.512-2.965H414q-21.96,0-32.306-10.98-10.366-10.98-10.346-29.321,0-18.157,10.428-29.239Q392.2,98.861,414,98.882H533.612V129.45h-119q-8.619,0-11.512,3.047a11.436,11.436,0,0,0-2.9,8.22c0,3.578.961,6.339,2.9,8.322C405.022,151,408.866,152,414.611,152h82.625q21.96,0,32.306,10.98T539.888,192.3q0,18.157-10.427,29.239-10.428,11.1-32.225,11.082Z" transform="translate(-371.346 -98.882)" fill="#f5f6f6"/>
    <path id="Path_17" data-name="Path 17" d="M380.279,129.45V98.882H558.391V129.45H483.126V232.624H455.544V129.45Z" transform="translate(-197.628 -98.882)" fill="#f5f6f6"/>
    <path id="Path_18" data-name="Path 18" d="M555.141,232.624l-13.719-21.592H435.569l-13.72,21.592H388.009L473.19,98.882h30.057l85.14,133.742ZM488.505,127.712l-35.454,55.8H523.96Z" transform="translate(-47.304 -98.882)" fill="#f5f6f6"/>
    <path id="Path_19" data-name="Path 19" d="M481.84,232.624v-40.3L396.229,98.882H437l58.642,66.043,58.621-66.043h40.77l-85.611,93.442v40.3Z" transform="translate(112.548 -98.882)" fill="#f5f6f6"/>
    <path id="Path_20" data-name="Path 20" d="M535.275,187.15q19.9-2.085,29.545-13.945,9.661-11.839,9.651-30,0-19.69-11.614-32.02-11.594-12.3-35.272-12.309H410.63V232.624h27.584V188.112h.1V158.689h-.1V129.45H526.5q10.8,0,14.967,3.906,4.14,3.926,4.151,10.612,0,6.87-4.151,10.8-4.171,3.926-14.967,3.926H451.749v29.423H493.4l54.572,44.512h45.475Z" transform="translate(392.602 -98.882)" fill="#f5f6f6"/>
    <path id="Path_21" data-name="Path 21" d="M420.453,232.624V98.882h158.2V129.45H448.036V152H562.66v27.5H448.036v22.553H578.65v30.568Z" transform="translate(583.627 -98.882)" fill="#f5f6f6"/>
    <path id="Path_22" data-name="Path 22" d="M544.026,232.624H514.705L428.788,98.882h35.128l65.347,104.831L594.815,98.882h35.128Z" transform="translate(745.716 -98.882)" fill="#f5f6f6"/>
    <path id="Path_23" data-name="Path 23" d="M524.222,232.624v-40.3L438.61,98.882h40.772l58.64,66.043,58.642-66.043h40.771l-85.612,93.442v40.3Z" transform="translate(936.722 -98.882)" fill="#f5f6f6"/>
  </g>
  <g id="Group_3" data-name="Group 3" transform="translate(407.586)">
    <path id="Path_24" data-name="Path 24" d="M1083.831,113.652l-23.964.225c5.276,5.623,18.075,18.75,22.083,23.023L977.916,240.872H484.5l-40.158-40.116c.859-.061,2.535-.286,4.212-.266,38.563.184,77.146.552,115.708.572,37.684,0,75.367-.593,113.03-.47,21,.082,38.911-15.09,40.443-35.291,1.7-22.226-12.452-39.974-34.268-42.693a134.638,134.638,0,0,0-15.192-.92c-18.218-.164-36.457-.062-54.675-.266-7.443-.082-12.759-3.476-13.782-11.348-.859-6.788,4.6-12.6,12.6-13.72a58.73,58.73,0,0,1,8.056-.245h89.025c0-7.647.307-14.5.429-21.837l-96.979.184a47.612,47.612,0,0,0-14.905,2.7c-14.844,5.214-23,17.543-22.553,33.083.45,15.212,9.406,27.971,24.822,30.916,13.331,2.535,27.216,2.29,40.874,2.76,13.086.47,26.253-.409,39.278.613,10.714.838,17.216,7.872,17.4,16.173.184,8.424-6.032,14.947-16.562,17.175a34.8,34.8,0,0,1-7.136.736l-280.8-.573Q562.94,348.535,729.57,516.086l380.167-379.554C1100.659,127.945,1083.831,113.652,1083.831,113.652Zm-395.849,330.5q-23.34-23.31-46.68-46.639h179.85q-23.34,23.34-46.66,46.639Zm-64.223-64.162q-25.825-25.794-51.669-51.628H890.344q-26.009,26.008-51.956,51.935ZM731.247,487.379l-24.781-24.761h49.542Zm178.01-177.907-356.06.02L506.946,263.3l448.929-.409Q932.566,286.2,909.256,309.471Z" transform="translate(-350.753 172.95)" fill="#f5f6f6"/>
    <path id="Path_25" data-name="Path 25" d="M522.679,76.518c-4.722,0-17.625.143-23.554-.123l-.061,7.3c-2.045,9.631-8.546,15.928-18.341,16.787-10.386.92-20.876.818-31.3.941-12.472.143-24.925.02-37.622.02v22.737c13.761,0,26.847-.307,39.933.184,3.967.164,8.833,1.493,11.614,4.069,8.73,8.138,16.582,17.2,24.986,25.7,2.209,2.249,5.07,5.173,7.791,5.357,9.466.654,18.995.245,30.772.245C513.5,146.119,501.844,134.28,490.026,122.3,516.075,111.4,526.462,92.712,522.679,76.518Z" transform="translate(7.69 214.236)" fill="#f5f6f6"/>
    <path id="Path_26" data-name="Path 26" d="M419.231,370.846,574.77,217.72l29.4,27.828-10.265,82.094,85.529-195-6.85,54.061,34.207-82.789,52.752,128.181L724.583,100.5,854.278,297.932,787.089,152.638,797.8,127.181,942.853,294.8l-29.934-75.285,24-29.75L1052.8,309.792H775.312V435.376h22.921V330.77H1106.8l-.041-.02h.306L923.552,147.24l-45.024,49.031-84.834-90.313-21.9,15.049L712.969,62.181,618.546,190.812l-32.837-14.395L391.28,372.072l24.29,21.858h24.313Z" transform="translate(-391.28 -62.181)" fill="#f5f6f6"/>
  </g>
</svg>
