<svg xmlns="http://www.w3.org/2000/svg" xmlns:xlink="http://www.w3.org/1999/xlink" width="52" height="42" viewBox="0 0 52 42">
  <defs>
    <clipPath id="clip-path">
      <path id="Path_403" data-name="Path 403" d="M0,0H52V42H0Z" transform="translate(142 3053)" fill="none" stroke="#707070" stroke-width="1"/>
    </clipPath>
  </defs>
  <g id="lq" transform="translate(-142 -3053)" clip-path="url(#clip-path)">
    <path id="Path_405" data-name="Path 405" d="M22.68-113.736c-7.728,5.544-13.608,14.952-13.608,25.2,0,8.232,4.872,12.768,10.416,12.768a8.855,8.855,0,0,0,8.9-8.9c0-5.04-3.36-8.568-8.064-8.568-.84,0-2.016.168-2.184.168.5-5.376,5.376-12.1,10.752-15.624Zm26.88,0c-7.728,5.544-13.608,14.952-13.608,25.2,0,8.232,4.872,12.768,10.416,12.768a9,9,0,0,0,9.072-8.9c0-5.04-3.528-8.568-8.232-8.568-.84,0-2.016.168-2.184.168.672-5.376,5.376-12.1,10.752-15.624Z" transform="translate(135 3169)" fill="#31AD8A"/>
  </g>
</svg>
